<?xml version="1.0" encoding="UTF-8"?>
<svg width="38px" height="37px" viewBox="0 0 38 37" version="1.1" xmlns="http://www.w3.org/2000/svg" xmlns:xlink="http://www.w3.org/1999/xlink">
    <!-- Generator: Sketch 49 (51002) - http://www.bohemiancoding.com/sketch -->
    <title>icon-design</title>
    <desc>Created with Sketch.</desc>
    <defs>
        <filter x="-23.9%" y="-77.8%" width="147.8%" height="277.8%" filterUnits="objectBoundingBox" id="filter-1">
            <feOffset dx="0" dy="2" in="SourceAlpha" result="shadowOffsetOuter1"></feOffset>
            <feGaussianBlur stdDeviation="5" in="shadowOffsetOuter1" result="shadowBlurOuter1"></feGaussianBlur>
            <feColorMatrix values="0 0 0 0 0   0 0 0 0 0   0 0 0 0 0  0 0 0 0.35 0" type="matrix" in="shadowBlurOuter1" result="shadowMatrixOuter1"></feColorMatrix>
            <feMerge>
                <feMergeNode in="shadowMatrixOuter1"></feMergeNode>
                <feMergeNode in="SourceGraphic"></feMergeNode>
            </feMerge>
        </filter>
    </defs>
    <g id="Symbols" stroke="none" stroke-width="1" fill="none" fill-rule="evenodd">
        <g id="Elements/Icons/Design-Color" transform="translate(9.000000, 7.000000)" fill="#F3B85C">
            <g id="Elements/Icons/Design" filter="url(#filter-1)" transform="translate(1.000000, 1.000000)">
                <g id="icon-design">
                    <path d="M4.98209131,17.0555556 C4.42309773,16.7762021 3.89724678,16.4403767 3.41201465,16.0555556 L14.5879853,16.0555556 C14.1027532,16.4403767 13.5769023,16.7762021 13.0179087,17.0555556 L4.98209131,17.0555556 Z M2.34181913,15.0555556 C2.05619656,14.7416925 1.79246469,14.4075549 1.55303646,14.0555556 L16.4469635,14.0555556 C16.2075353,14.4075549 15.9438034,14.7416925 15.6581809,15.0555556 L2.34181913,15.0555556 Z M0.963368899,13.0555556 C0.800223036,12.732897 0.655936893,12.3990805 0.53195983,12.0555556 L17.4680402,12.0555556 C17.3440631,12.3990805 17.199777,12.732897 17.0366311,13.0555556 L0.963368899,13.0555556 Z M0.235809013,11.0555556 C0.159449678,10.7287117 0.100901749,10.3950186 0.0612444704,10.0555556 L17.9387555,10.0555556 C17.8990983,10.3950186 17.8405503,10.7287117 17.764191,11.0555556 L0.235809013,11.0555556 Z M0.000167868425,9.05555556 C5.60094905e-05,9.03705023 -8.75195099e-16,9.01853165 -8.75195099e-16,9 C-8.75195099e-16,8.68103778 0.0165924978,8.36595094 0.0489614331,8.05555556 L17.9510386,8.05555556 C17.9834075,8.36595094 18,8.68103778 18,9 C18,9.01853165 17.999944,9.03705023 17.9998321,9.05555556 L0.000167868425,9.05555556 Z M0.210595993,7.05555556 C0.285691721,6.71456553 0.380124779,6.38082939 0.49268674,6.05555556 L17.5073133,6.05555556 C17.6198752,6.38082939 17.7143083,6.71456553 17.789404,7.05555556 L0.210595993,7.05555556 Z M0.908149784,5.05555556 C1.07731645,4.70916641 1.2680698,4.37524919 1.47865814,4.05555556 L16.5213419,4.05555556 C16.7319302,4.37524919 16.9226835,4.70916641 17.0918502,5.05555556 L0.908149784,5.05555556 Z M2.24236595,3.05555556 C2.55931599,2.695529 2.90458418,2.36103482 3.27468797,2.05555556 L14.725312,2.05555556 C15.0954158,2.36103482 15.440684,2.695529 15.757634,3.05555556 L2.24236595,3.05555556 Z M4.76706035,1.05555556 C6.02877443,0.381887456 7.46978992,0 9,0 C10.5302101,0 11.9712256,0.381887456 13.2329396,1.05555556 L4.76706035,1.05555556 Z" id="Combined-Shape"></path>
                </g>
            </g>
        </g>
    </g>
</svg>